<?xml version="1.0" encoding="UTF-8" standalone="no"?>
<!-- Created with Inkscape (http://www.inkscape.org/) -->

<svg
   width="128"
   height="128"
   viewBox="0 0 33.866666 33.866666"
   version="1.1"
   id="svg1"
   xml:space="preserve"
   inkscape:version="1.4 (e7c3feb100, 2024-10-09)"
   sodipodi:docname="bsky.svg"
   xmlns:inkscape="http://www.inkscape.org/namespaces/inkscape"
   xmlns:sodipodi="http://sodipodi.sourceforge.net/DTD/sodipodi-0.dtd"
   xmlns="http://www.w3.org/2000/svg"
   xmlns:svg="http://www.w3.org/2000/svg"><sodipodi:namedview
     id="namedview1"
     pagecolor="#505050"
     bordercolor="#eeeeee"
     borderopacity="1"
     inkscape:showpageshadow="0"
     inkscape:pageopacity="0"
     inkscape:pagecheckerboard="0"
     inkscape:deskcolor="#505050"
     inkscape:document-units="mm"
     inkscape:zoom="2.7414474"
     inkscape:cx="50.520757"
     inkscape:cy="79.884807"
     inkscape:window-width="1366"
     inkscape:window-height="740"
     inkscape:window-x="0"
     inkscape:window-y="0"
     inkscape:window-maximized="1"
     inkscape:current-layer="layer1" /><defs
     id="defs1" /><g
     inkscape:label="Layer 1"
     inkscape:groupmode="layer"
     id="layer1"><path
       style="fill:#ffffff"
       d="M 10.230556,31.256817 C 8.9563403,31.021176 7.6501118,30.222727 6.2356666,28.81489 5.6794752,28.261297 5.3887652,27.916906 5.0470242,27.406762 4.654111,26.820228 4.3890788,26.232083 4.2588358,25.657657 l -0.055221,-0.243545 -0.017371,-0.368734 -0.017371,-0.368734 0.034416,-0.235371 C 4.2791851,23.92221 4.4496139,23.487385 4.7615263,23.017005 L 4.9498515,22.733 5.2618705,22.419191 c 0.5125708,-0.515512 1.0339205,-0.870562 1.8607181,-1.267188 0.718862,-0.344847 1.6366615,-0.653378 2.5999673,-0.874014 0.1862667,-0.04266 0.3704171,-0.09578 0.4092221,-0.118045 l 0.07056,-0.04048 -0.2540003,0.01598 c -0.1397,0.0088 -0.4699,0.02932 -0.7337777,0.04562 C 7.453348,20.289893 5.6315101,19.903316 4.3207068,19.142636 3.269434,18.532567 2.4527786,17.656307 1.9329021,16.580555 1.5374195,15.762205 1.4166546,15.260648 1.2295846,13.659555 1.0234744,11.895501 0.73094306,8.4487441 0.61879281,6.462888 l -0.0326736,-0.5785556 0.0191854,-0.381 C 0.68814143,3.8582863 1.2636684,2.9195292 2.3639309,2.634791 l 0.2748476,-0.071128 0.3951111,-0.00125 0.3951111,-0.00125 0.3295181,0.059832 c 1.394603,0.253222 3.0214609,1.1131601 4.5941268,2.4284017 1.0524028,0.8801386 2.2842404,2.1273436 3.4239674,3.4666826 1.898378,2.2308604 3.764394,4.9368494 4.914054,7.1260794 0.120233,0.228952 0.23021,0.416277 0.244392,0.416277 0.01418,0 0.07175,-0.09127 0.127929,-0.202827 0.607355,-1.206047 1.659619,-2.897273 2.744795,-4.411506 2.362366,-3.2964005 4.916501,-5.9838902 6.998373,-7.3637682 1.194106,-0.7914604 2.289195,-1.275443 3.301992,-1.4593395 l 0.329518,-0.059832 0.395111,0.00125 0.395111,0.00125 0.274848,0.071128 c 1.115701,0.2887336 1.683347,1.2332917 1.760286,2.9290986 l 0.0171,0.3768873 -0.04591,0.7478889 c -0.152506,2.484363 -0.464732,6.0122132 -0.66815,7.5494452 -0.128442,0.970636 -0.210036,1.324488 -0.43927,1.905 -0.681433,1.725657 -2.029922,2.965758 -3.908386,3.59424 -0.799196,0.267389 -1.635941,0.408574 -2.705517,0.456505 -0.337958,0.01515 -0.752854,-6.02e-4 -1.594555,-0.06052 l -0.254,-0.01808 0.02822,0.0299 c 0.01552,0.01645 0.288572,0.09323 0.606778,0.170633 1.988873,0.483791 3.362191,1.154715 4.305463,2.1034 l 0.312019,0.313809 0.188325,0.284005 c 0.311731,0.470105 0.482346,0.905239 0.55811,1.423387 l 0.03429,0.234491 -0.01563,0.355503 c -0.01742,0.396108 -0.06429,0.649986 -0.193309,1.046948 -0.193873,0.596513 -0.646437,1.375671 -1.155674,1.989667 -0.128739,0.155222 -0.444604,0.491772 -0.701923,0.747889 -1.422689,1.416043 -2.745316,2.222526 -4.005262,2.442242 l -0.23691,0.04131 H 22.98642 22.584013 l -0.233865,-0.04436 c -1.552119,-0.294432 -2.896841,-1.577221 -4.032321,-3.846609 -0.392514,-0.784483 -0.673781,-1.46732 -1.06521,-2.586028 -0.130347,-0.372533 -0.25551,-0.69593 -0.278139,-0.718659 l -0.04115,-0.04132 -0.04114,0.04132 c -0.02263,0.02273 -0.147792,0.346126 -0.278139,0.718659 -0.896161,2.561235 -1.78074,4.145446 -2.93108,5.249334 -0.682555,0.654992 -1.374904,1.033149 -2.166451,1.183303 l -0.233865,0.04436 -0.427271,-0.0025 c -0.234999,-0.0014 -0.516172,-0.01899 -0.624827,-0.03908 z"
       id="path1" /></g></svg>
