<?xml version="1.0" encoding="UTF-8" standalone="no"?>
<!-- Created with Inkscape (http://www.inkscape.org/) -->

<svg
   width="128"
   height="128"
   viewBox="0 0 33.866666 33.866666"
   version="1.1"
   id="svg1"
   xml:space="preserve"
   inkscape:version="1.4 (e7c3feb100, 2024-10-09)"
   sodipodi:docname="newgrounds.svg"
   xmlns:inkscape="http://www.inkscape.org/namespaces/inkscape"
   xmlns:sodipodi="http://sodipodi.sourceforge.net/DTD/sodipodi-0.dtd"
   xmlns="http://www.w3.org/2000/svg"
   xmlns:svg="http://www.w3.org/2000/svg"><sodipodi:namedview
     id="namedview1"
     pagecolor="#505050"
     bordercolor="#eeeeee"
     borderopacity="1"
     inkscape:showpageshadow="0"
     inkscape:pageopacity="0"
     inkscape:pagecheckerboard="0"
     inkscape:deskcolor="#505050"
     inkscape:document-units="mm"
     inkscape:zoom="1.3707237"
     inkscape:cx="33.194144"
     inkscape:cy="-32.829373"
     inkscape:window-width="1366"
     inkscape:window-height="740"
     inkscape:window-x="0"
     inkscape:window-y="0"
     inkscape:window-maximized="1"
     inkscape:current-layer="layer1" /><defs
     id="defs1" /><g
     inkscape:label="Layer 1"
     inkscape:groupmode="layer"
     id="layer1"><path
       style="fill:#ffffff"
       d="M 2.1688747,29.824593 C 1.9381864,29.743761 1.6334315,29.521206 1.4916417,29.330027 1.2349137,28.983872 1.2336896,28.934224 1.1971774,17.3861 1.1770118,11.00812 1.1958359,5.5437679 1.2390087,5.2430952 1.2950342,4.8529107 1.4341866,4.5797355 1.7251098,4.2888124 2.1327149,3.8812072 2.1327149,3.8812072 7.2053243,3.8812072 c 5.8152017,0 6.0390997,0.029031 6.9925267,0.9066468 1.071603,0.9863943 1.040172,0.7720432 1.15801,7.897382 0.05712,3.453888 0.08911,8.496195 0.07108,11.205127 -0.03135,4.710851 -0.04376,4.944097 -0.285121,5.356297 -0.342418,0.584792 -0.819991,0.723553 -2.518151,0.731658 -1.573195,0.0075 -2.05226,-0.139527 -2.515479,-0.772056 C 9.8546053,28.85999 9.8534302,28.805955 9.8993101,19.601867 9.9400577,11.427413 9.9230187,10.292254 9.7535077,9.8883364 9.5233911,9.3400049 9.2633737,9.2524246 8.0663557,9.3200622 6.6423041,9.4005283 6.7841658,8.3385722 6.7132723,19.449044 6.6531046,28.878571 6.6461102,29.104075 6.4054392,29.373925 5.9723516,29.859519 5.4646261,29.985949 3.9775121,29.978509 3.2134498,29.974687 2.399563,29.905424 2.1688747,29.824593 Z m 19.0010933,-0.01232 c -1.209981,-0.293741 -1.925256,-0.927305 -2.408817,-2.13364 -0.273871,-0.683224 -0.285921,-0.86051 -0.320238,-4.711768 -0.01961,-2.201007 0.0093,-6.800034 0.06433,-10.220061 0.09801,-6.0956198 0.105517,-6.2306563 0.380424,-6.8484575 0.344959,-0.7752305 0.87292,-1.3007135 1.6801,-1.6722134 0.598158,-0.2752992 0.734102,-0.2844068 4.780396,-0.3202666 4.958219,-0.043941 5.137631,-0.014972 6.175681,0.9971934 0.973657,0.9493777 1.049416,1.3044884 1.049416,4.9189898 0,1.6472503 -0.0521,3.0382853 -0.118428,3.1622283 -0.222546,0.415832 -0.851082,0.562893 -2.405804,0.562893 -1.709554,0 -2.253677,-0.09062 -2.625792,-0.437296 -0.246304,-0.229467 -0.26784,-0.368404 -0.26784,-1.72793 0,-1.4054813 -0.01491,-1.4933068 -0.302236,-1.7806359 -0.2669,-0.2669003 -0.409684,-0.3022362 -1.221262,-0.3022362 -1.119639,0 -1.26482,0.050765 -1.511963,0.528688 -0.173445,0.3354051 -0.184497,1.1135331 -0.103017,7.2532451 0.09127,6.877534 0.09127,6.877534 0.400148,7.120496 0.437537,0.344167 1.96407,0.349177 2.386073,0.0078 0.270119,-0.218492 0.293619,-0.336129 0.33207,-1.662299 0.04138,-1.427168 0.04138,-1.427168 -0.346712,-1.427168 -1.005838,0 -1.233833,-0.511949 -1.233833,-2.770498 0,-1.902338 0.14284,-2.443208 0.70206,-2.658381 0.220815,-0.08496 1.305494,-0.11785 3.020021,-0.09157 2.66716,0.04089 2.676379,0.04197 2.976016,0.348848 0.300568,0.307833 0.300568,0.307833 0.341317,5.787264 0.04075,5.47943 0.04075,5.47943 -0.242609,6.095096 -0.516786,1.12285 -1.318223,1.747909 -2.585552,2.016528 -0.917789,0.194532 -7.763395,0.166744 -8.593947,-0.03488 z"
       id="path2" /></g></svg>
