<?xml version="1.0" encoding="UTF-8" standalone="no"?>
<!-- Created with Inkscape (http://www.inkscape.org/) -->

<svg
   width="128"
   height="128"
   viewBox="0 0 33.866666 33.866666"
   version="1.1"
   id="svg1"
   xml:space="preserve"
   inkscape:version="1.4 (e7c3feb100, 2024-10-09)"
   sodipodi:docname="soundcloud.svg"
   xmlns:inkscape="http://www.inkscape.org/namespaces/inkscape"
   xmlns:sodipodi="http://sodipodi.sourceforge.net/DTD/sodipodi-0.dtd"
   xmlns="http://www.w3.org/2000/svg"
   xmlns:svg="http://www.w3.org/2000/svg"><sodipodi:namedview
     id="namedview1"
     pagecolor="#505050"
     bordercolor="#eeeeee"
     borderopacity="1"
     inkscape:showpageshadow="0"
     inkscape:pageopacity="0"
     inkscape:pagecheckerboard="0"
     inkscape:deskcolor="#505050"
     inkscape:document-units="mm"
     inkscape:zoom="2.7414474"
     inkscape:cx="43.954883"
     inkscape:cy="69.306454"
     inkscape:window-width="1366"
     inkscape:window-height="740"
     inkscape:window-x="0"
     inkscape:window-y="0"
     inkscape:window-maximized="1"
     inkscape:current-layer="layer1" /><defs
     id="defs1" /><g
     inkscape:label="Layer 1"
     inkscape:groupmode="layer"
     id="layer1"><circle
       style="display:none;fill:#ffffff;stroke-width:1;stroke-linejoin:round;paint-order:markers stroke fill"
       id="path1"
       cx="16.933332"
       cy="16.933332"
       r="16.933332" /><path
       style="fill:#f9f9f9;stroke-width:1.00356"
       d="m 8.213135,24.21615 -0.1089867,-0.0804 -0.1325409,-1.85868 -0.1325408,-1.85868 0.1292042,-3.473909 0.1292041,-3.473909 0.078091,-0.09409 c 0.096009,-0.115684 0.3018455,-0.1227 0.3698858,-0.01261 0.027698,0.04482 0.114322,1.653522 0.1924967,3.574898 l 0.1421359,3.493414 -0.1506856,1.851783 c -0.082877,1.018482 -0.1528017,1.858202 -0.1553882,1.866044 -0.00259,0.0078 -0.060319,0.04403 -0.1282957,0.08041 l -0.1235929,0.06614 z m 7.081632,0.01393 c -0.07976,-0.02951 -0.172959,-0.10761 -0.207108,-0.173561 -0.03415,-0.06596 -0.09901,-0.919457 -0.144144,-1.896677 l -0.08205,-1.776765 0.07656,-4.263946 c 0.04211,-2.34517 0.09056,-4.33078 0.107669,-4.412465 0.01711,-0.08169 0.101285,-0.194497 0.187052,-0.250694 l 0.15594,-0.102175 0.165859,0.06306 c 0.09122,0.03468 0.187589,0.117623 0.214146,0.184313 0.02656,0.06669 0.09171,2.062909 0.144776,4.436046 l 0.09649,4.314793 -0.09683,1.792299 c -0.05326,0.985764 -0.11598,1.840528 -0.139376,1.899474 -0.02339,0.05895 -0.108105,0.13705 -0.188244,0.173561 L 15.4398,24.283733 Z M 5.4776916,24.161043 C 5.4524439,24.120191 5.3663218,23.260713 5.2863094,22.251092 L 5.1408319,20.415417 5.2870806,18.63348 5.4333293,16.851543 5.5183117,16.79902 c 0.1247079,-0.07707 0.259967,-0.0041 0.2932057,0.158257 0.015996,0.07812 0.094973,0.884056 0.175504,1.790969 l 0.1464197,1.648931 -0.1473893,1.769713 c -0.081064,0.973341 -0.1745942,1.836922 -0.2078446,1.91907 -0.06422,0.158658 -0.2241652,0.19862 -0.3005156,0.07509 z m 1.3334973,0.0095 C 6.7891689,24.134909 6.7090159,23.27104 6.6330712,22.25083 l -0.1380811,-1.854928 0.1371251,-2.836905 0.1371252,-2.836905 0.1077387,-0.105828 0.1077387,-0.105826 0.1284805,0.156712 0.1284805,0.156712 v 0.29007 c 0,0.159539 0.061577,1.388435 0.1368363,2.73088 l 0.1368365,2.44081 -0.1417287,1.82549 c -0.077951,1.004019 -0.1687584,1.8927 -0.2017948,1.974848 l -0.060066,0.149358 H 6.9814936 c -0.071647,0 -0.1482848,-0.02915 -0.1703049,-0.06478 z M 9.5635684,24.134027 9.4794699,24.032695 9.35958,22.222403 9.2396903,20.412111 9.3588046,16.625362 c 0.065513,-2.082711 0.1404769,-3.821314 0.1665868,-3.863561 0.065501,-0.105983 0.3389276,-0.09652 0.4314219,0.01492 l 0.076135,0.09174 0.135323,3.765686 0.135323,3.765687 -0.137732,1.828929 -0.137731,1.82893 -0.073725,0.08883 c -0.098418,0.118587 -0.2870528,0.112554 -0.3908372,-0.01249 z m 1.3321016,-0.04803 c -0.03329,-0.08215 -0.106803,-0.946049 -0.163366,-1.91978 l -0.102843,-1.770421 0.101567,-3.80562 c 0.05586,-2.093091 0.115435,-3.871968 0.132383,-3.953061 0.01695,-0.08109 0.09021,-0.179228 0.162794,-0.218075 l 0.131978,-0.07063 0.13198,0.07063 c 0.07259,0.03885 0.14598,0.136982 0.163093,0.218075 0.01711,0.0811 0.08163,1.865061 0.143369,3.964374 l 0.112256,3.816934 -0.110093,1.626344 c -0.06056,0.89449 -0.109778,1.70636 -0.109394,1.804154 8.69e-4,0.221603 -0.157193,0.386434 -0.370565,0.386434 h -0.162636 z m 1.441346,0.03319 -0.10299,-0.116168 -0.102807,-1.811687 -0.102807,-1.811687 0.101945,-3.797544 0.101946,-3.797545 0.103852,-0.116167 c 0.128488,-0.143726 0.37048,-0.150444 0.484182,-0.01344 l 0.08525,0.102725 0.113647,3.830375 0.113646,3.830375 -0.117889,1.810853 -0.117891,1.810854 -0.08101,0.09762 c -0.109966,0.1325 -0.353518,0.123068 -0.479077,-0.01856 z m 1.393305,0 -0.103697,-0.116168 -0.09078,-1.796805 -0.09078,-1.796804 0.0898,-3.679664 0.0898,-3.679665 0.104675,-0.116167 c 0.05757,-0.0639 0.188609,-0.116167 0.291195,-0.116167 h 0.186521 l 0.07553,0.141135 0.07553,0.141134 0.102397,3.64471 0.102399,3.64471 -0.102801,1.782578 -0.102802,1.782577 -0.07513,0.140382 -0.07513,0.140381 h -0.186506 c -0.102586,0 -0.233184,-0.05228 -0.290217,-0.116167 z m 2.809577,-0.05874 c -0.07567,-0.0962 -0.137104,-0.253024 -0.136521,-0.348502 5.84e-4,-0.09548 -0.03468,-0.873511 -0.07836,-1.728962 l -0.07942,-1.555365 0.08591,-4.750871 0.08591,-4.750872 0.06035,-0.114646 c 0.149281,-0.283589 0.582469,-0.310383 0.724595,-0.04482 l 0.07369,0.137686 0.104717,4.65759 0.104718,4.657589 -0.07943,1.493582 c -0.04368,0.821471 -0.09759,1.669695 -0.119775,1.884944 l -0.04034,0.391361 -0.123095,0.123095 c -0.0677,0.0677 -0.195605,0.123095 -0.28423,0.123095 h -0.161136 z m 1.327629,0 -0.137581,-0.174905 V 17.135123 10.38474 l 0.149359,-0.13772 c 0.273052,-0.2517752 1.420743,-0.5532456 2.473122,-0.6496288 l 0.465083,-0.042595 0.686558,0.075547 c 0.932121,0.1025683 1.695131,0.3294734 2.566389,0.7631978 l 0.731278,0.364041 0.541488,0.433243 c 1.431761,1.145551 2.416453,2.831152 2.681556,4.590305 l 0.08145,0.540496 0.371303,-0.133117 0.371303,-0.133119 0.697835,-0.03356 0.697835,-0.03356 0.430649,0.108127 c 1.49753,0.375995 2.707556,1.55946 3.083269,3.015591 l 0.108245,0.419514 -0.0011,0.609398 -0.0011,0.609398 -0.101969,0.386872 c -0.386685,1.467083 -1.59299,2.657592 -3.0381,2.998315 l -0.415122,0.09788 -6.15206,9.82e-4 -6.152061,9.81e-4 z M 4.1471141,24.089889 C 4.1202445,24.046414 4.0298543,23.217476 3.946247,22.247805 L 3.7942336,20.484766 3.9262914,18.758849 c 0.072632,-0.949255 0.1479713,-1.824569 0.1674213,-1.945145 0.034176,-0.211867 0.1835398,-0.344403 0.2797292,-0.248213 0.025751,0.02575 0.1249738,0.888251 0.2204943,1.916666 l 0.1736736,1.869847 -0.1667583,1.825489 c -0.091718,1.00402 -0.1958855,1.862829 -0.2314854,1.908467 -0.081374,0.104317 -0.1593567,0.105696 -0.222252,0.0039 z M 2.8244574,23.965171 C 2.8003224,23.926121 2.7083818,23.113035 2.6201448,22.158314 l -0.1604309,-1.735856 0.1340637,-1.562 c 0.073735,-0.8591 0.1517801,-1.703891 0.1734333,-1.877312 l 0.03937,-0.315312 h 0.089425 c 0.049184,0 0.1037873,0.02324 0.1213407,0.05164 0.017553,0.0284 0.1135832,0.867211 0.2133994,1.864021 l 0.1814843,1.812382 -0.1819463,1.769255 c -0.1000702,0.973092 -0.1961002,1.792158 -0.2133995,1.82015 -0.045013,0.07283 -0.1411987,0.06278 -0.1924272,-0.02011 z M 1.504895,23.438741 C 1.4842907,23.383975 1.3927266,22.674776 1.3014191,21.862742 l -0.1660138,-1.476426 0.169994,-1.510738 c 0.1576916,-1.401408 0.2216934,-1.704602 0.3357516,-1.590544 0.024259,0.02426 0.1300087,0.724251 0.2349999,1.555539 l 0.1908928,1.511431 -0.1841075,1.486953 C 1.781677,22.656781 1.6636225,23.373701 1.6205928,23.432111 l -0.078236,0.106202 z M 0.25484984,22.332636 c -0.0174694,-0.03056 -0.0865339,-0.469606 -0.15347673,-0.97565 l -0.12171414,-0.920079 0.11940655,-0.971792 c 0.0656736,-0.534485 0.14487233,-0.99874 0.17599715,-1.031675 l 0.0565906,-0.05988 0.0667986,0.159456 c 0.0367392,0.0877 0.12426395,0.547788 0.19449936,1.022416 L 0.720652,20.418391 0.57448241,21.33245 c -0.13307537,0.832177 -0.23441403,1.149284 -0.31963258,1.000191 z"
       id="path2" /></g></svg>
