<?xml version="1.0" encoding="UTF-8" standalone="no"?>
<!-- Uploaded to: SVG Repo, www.svgrepo.com, Generator: SVG Repo Mixer Tools -->

<svg
   height="128"
   width="128"
   version="1.1"
   id="Layer_1"
   viewBox="0 0 73.76016 73.76016"
   xml:space="preserve"
   sodipodi:docname="youtube.svg"
   inkscape:version="1.4 (e7c3feb100, 2024-10-09)"
   xmlns:inkscape="http://www.inkscape.org/namespaces/inkscape"
   xmlns:sodipodi="http://sodipodi.sourceforge.net/DTD/sodipodi-0.dtd"
   xmlns="http://www.w3.org/2000/svg"
   xmlns:svg="http://www.w3.org/2000/svg"><defs
   id="defs1" /><sodipodi:namedview
   id="namedview1"
   pagecolor="#505050"
   bordercolor="#eeeeee"
   borderopacity="1"
   inkscape:showpageshadow="0"
   inkscape:pageopacity="0"
   inkscape:pagecheckerboard="0"
   inkscape:deskcolor="#505050"
   inkscape:zoom="3.8466609"
   inkscape:cx="52.64306"
   inkscape:cy="72.270473"
   inkscape:window-width="1366"
   inkscape:window-height="740"
   inkscape:window-x="0"
   inkscape:window-y="0"
   inkscape:window-maximized="1"
   inkscape:current-layer="Layer_1" />

<path
   style="fill:#ffffff"
   d="M 25.427086,62.438965 C 17.90885,62.21584 12.400484,61.84027 9.5081448,61.353583 5.0473835,60.602981 2.3521814,58.030722 1.3749249,53.591365 -0.63322928,44.468976 -0.21650347,22.918858 2.0679438,17.753318 2.54604,16.672258 3.0141332,16.005449 3.9894228,15.01613 c 2.0529219,-2.082452 3.9503441,-2.697395 9.8406062,-3.18928 13.972342,-1.166803 42.230373,-0.888624 50.372655,0.495882 2.577491,0.438274 3.964977,1.108119 5.561037,2.684735 1.906866,1.883636 2.61967,3.79023 3.195327,8.546805 1.151673,9.516105 0.886366,23.403976 -0.573813,30.037093 -0.975648,4.432052 -3.67938,7.012493 -8.13322,7.762345 -5.886869,0.991118 -24.482381,1.51091 -38.824929,1.085255 z M 39.127464,42.390482 c 5.251804,-3.030721 9.503945,-5.554804 9.449203,-5.609074 C 48.388054,36.59442 29.892599,25.958206 29.640923,25.891996 c -0.238488,-0.06274 -0.252109,0.530052 -0.252109,10.971282 0,6.070683 0.04273,11.037606 0.09496,11.037606 0.05223,0 4.391889,-2.479681 9.643692,-5.510402 z"
   id="path1" /></svg>
